<svg width="34" height="34" viewBox="0 0 34 34" fill="none" xmlns="http://www.w3.org/2000/svg">
<path d="M32.999 24.9581V29.7754C33.0008 30.2226 32.909 30.6653 32.7295 31.0751C32.55 31.4848 32.2867 31.8526 31.9565 32.155C31.6263 32.4573 31.2365 32.6875 30.812 32.8307C30.3876 32.974 29.9378 33.0272 29.4915 32.987C24.5405 32.4501 19.7847 30.7616 15.6062 28.0573C11.7187 25.5919 8.42282 22.3025 5.95254 18.4227C3.23338 14.2336 1.54119 9.46413 1.01306 4.50072C0.972852 4.05667 1.02573 3.60914 1.16832 3.1866C1.31092 2.76407 1.5401 2.3758 1.84129 2.04651C2.14248 1.71721 2.50907 1.45412 2.91772 1.27397C3.32637 1.09383 3.76813 1.00058 4.21487 1.00016H9.04173C9.82256 0.992486 10.5795 1.26844 11.1716 1.77659C11.7636 2.28475 12.1503 2.99041 12.2596 3.76207C12.4634 5.30371 12.8412 6.8174 13.3859 8.27426C13.6024 8.84901 13.6492 9.47363 13.5209 10.0741C13.3926 10.6746 13.0945 11.2258 12.6619 11.6624L10.6185 13.7017C12.9089 17.7218 16.2441 21.0504 20.2722 23.3363L22.3156 21.297C22.753 20.8653 23.3053 20.5677 23.907 20.4397C24.5087 20.3116 25.1346 20.3584 25.7105 20.5744C27.1702 21.118 28.6869 21.4951 30.2316 21.6984C31.0132 21.8085 31.727 22.2014 32.2372 22.8024C32.7475 23.4034 33.0186 24.1706 32.999 24.9581Z" stroke="#2C2C2C" stroke-width="2" stroke-linecap="round" stroke-linejoin="round"/>
</svg>
