<svg width="32" height="32" viewBox="0 0 32 32" fill="none" xmlns="http://www.w3.org/2000/svg">
<path fill-rule="evenodd" clip-rule="evenodd" d="M12.572 11.9586H17.524V14.4253C18.2374 13.0066 20.0667 11.732 22.8147 11.732C28.0827 11.732 29.3334 14.556 29.3334 19.7373V29.3333H24V20.9173C24 17.9666 23.2867 16.3026 21.4707 16.3026C18.952 16.3026 17.9054 18.096 17.9054 20.916V29.3333H12.572V11.9586ZM3.42669 29.1066H8.76002V11.732H3.42669V29.1066ZM9.52402 6.06663C9.52422 6.51366 9.43556 6.95627 9.2632 7.36874C9.09085 7.78121 8.83822 8.15531 8.52002 8.46929C7.87522 9.11012 7.00243 9.46883 6.09335 9.46663C5.18587 9.46602 4.3151 9.10822 3.66935 8.47063C3.3523 8.15558 3.10053 7.78106 2.92848 7.36853C2.75642 6.95601 2.66746 6.51359 2.66669 6.06663C2.66669 5.16396 3.02669 4.29996 3.67069 3.66263C4.31587 3.02417 5.18701 2.66623 6.09469 2.66663C7.00402 2.66663 7.87602 3.02529 8.52002 3.66263C9.16269 4.29996 9.52402 5.16396 9.52402 6.06663Z" fill="#ABABAB"/>
</svg>
