<svg width="290" height="96" viewBox="0 0 290 96" fill="none" xmlns="http://www.w3.org/2000/svg">
<path d="M87 36.2778V4H3V41.3333C10.2217 41.0741 26.2615 36.9 32.6471 22.2778" stroke="#ABABAB" stroke-width="6" stroke-linecap="round"/>
<path d="M3 55.7222V88H87V50.6667C79.7783 50.9259 63.7385 55.1 57.3529 69.7222" stroke="#ABABAB" stroke-width="6" stroke-linecap="round"/>
<path d="M105.792 48V14.16H111.216L123.648 42.144H122.16L134.592 14.16H139.968V48H134.352V22.896H136.08L124.704 48H121.008L109.632 22.896H111.408V48H105.792Z" fill="#ABABAB"/>
<path d="M151.11 48V14.16H155.766L175.398 39.552H174.15V14.16H179.91V48H175.254L155.67 22.608H156.87V48H151.11Z" fill="#ABABAB"/>
<path d="M102.336 77L109.824 60.08H111.768L119.376 77H117.072L114.984 72.2L115.944 72.776H105.648L106.704 72.2L104.616 77H102.336ZM110.76 62.576L107.016 71.456L106.44 70.952H115.152L114.696 71.456L110.856 62.576H110.76Z" fill="#ABABAB"/>
<path d="M121.783 77V60.08H128.791C130.599 60.08 131.991 60.504 132.967 61.352C133.959 62.2 134.455 63.384 134.455 64.904C134.455 65.912 134.231 66.768 133.783 67.472C133.335 68.176 132.703 68.712 131.887 69.08C131.087 69.448 130.151 69.632 129.079 69.632L129.487 69.296H130.063C130.719 69.296 131.303 69.464 131.815 69.8C132.327 70.12 132.751 70.648 133.087 71.384L135.487 77H133.015L130.687 71.432C130.415 70.744 130.015 70.296 129.487 70.088C128.975 69.88 128.327 69.776 127.543 69.776H124.015V77H121.783ZM124.015 68.048H128.455C129.687 68.048 130.623 67.784 131.263 67.256C131.919 66.728 132.247 65.96 132.247 64.952C132.247 63.96 131.919 63.208 131.263 62.696C130.623 62.168 129.687 61.904 128.455 61.904H124.015V68.048Z" fill="#ABABAB"/>
<path d="M150.137 81.608C149.673 81.304 149.185 80.912 148.673 80.432C148.177 79.952 147.705 79.416 147.257 78.824C146.825 78.232 146.449 77.632 146.129 77.024L148.025 76.304C148.441 77.136 148.977 77.888 149.633 78.56C150.305 79.248 150.985 79.832 151.673 80.312L150.137 81.608ZM137.729 68.528C137.729 66.752 138.041 65.216 138.665 63.92C139.289 62.624 140.185 61.624 141.353 60.92C142.537 60.216 143.945 59.864 145.577 59.864C147.193 59.864 148.585 60.216 149.753 60.92C150.937 61.624 151.849 62.624 152.489 63.92C153.129 65.216 153.449 66.744 153.449 68.504C153.449 70.28 153.129 71.824 152.489 73.136C151.849 74.432 150.937 75.44 149.753 76.16C148.585 76.864 147.193 77.216 145.577 77.216C143.945 77.216 142.545 76.864 141.377 76.16C140.209 75.44 139.305 74.432 138.665 73.136C138.041 71.824 137.729 70.288 137.729 68.528ZM140.081 68.528C140.081 70.64 140.545 72.288 141.473 73.472C142.401 74.656 143.769 75.248 145.577 75.248C147.321 75.248 148.673 74.664 149.633 73.496C150.609 72.312 151.097 70.656 151.097 68.528C151.097 66.4 150.617 64.752 149.657 63.584C148.697 62.416 147.337 61.832 145.577 61.832C143.769 61.832 142.401 62.416 141.473 63.584C140.545 64.752 140.081 66.4 140.081 68.528Z" fill="#ABABAB"/>
<path d="M163.73 77.216C161.41 77.216 159.682 76.632 158.546 75.464C157.426 74.28 156.866 72.544 156.866 70.256V60.08H159.122V70.184C159.122 71.864 159.49 73.128 160.226 73.976C160.962 74.824 162.13 75.248 163.73 75.248C165.266 75.248 166.418 74.824 167.186 73.976C167.97 73.128 168.362 71.864 168.362 70.184V60.08H170.57V70.256C170.57 72.544 169.994 74.28 168.842 75.464C167.69 76.632 165.986 77.216 163.73 77.216Z" fill="#ABABAB"/>
<path d="M174.587 77V60.08H176.819V77H174.587Z" fill="#ABABAB"/>
<path d="M184.972 77V61.976H179.116V60.08H193.108V61.976H187.228V77H184.972Z" fill="#ABABAB"/>
<path d="M195.494 77V60.08H206.438V61.904H197.654V67.496H205.886V69.32H197.654V75.176H206.438V77H195.494Z" fill="#ABABAB"/>
<path d="M217.044 77.216C215.348 77.216 213.892 76.864 212.676 76.16C211.476 75.456 210.556 74.456 209.916 73.16C209.276 71.848 208.956 70.304 208.956 68.528C208.956 66.752 209.276 65.216 209.916 63.92C210.556 62.624 211.476 61.624 212.676 60.92C213.892 60.216 215.348 59.864 217.044 59.864C218.26 59.864 219.34 60.048 220.284 60.416C221.228 60.768 222.052 61.288 222.756 61.976L221.94 63.776C221.172 63.104 220.412 62.624 219.66 62.336C218.924 62.032 218.068 61.88 217.092 61.88C215.22 61.88 213.788 62.456 212.796 63.608C211.804 64.76 211.308 66.4 211.308 68.528C211.308 70.656 211.804 72.304 212.796 73.472C213.788 74.624 215.22 75.2 217.092 75.2C218.068 75.2 218.924 75.056 219.66 74.768C220.412 74.464 221.172 73.976 221.94 73.304L222.756 75.08C222.052 75.768 221.22 76.296 220.26 76.664C219.316 77.032 218.244 77.216 217.044 77.216Z" fill="#ABABAB"/>
<path d="M229.831 77V61.976H223.975V60.08H237.967V61.976H232.087V77H229.831Z" fill="#ABABAB"/>
<path d="M238.674 68.528C238.674 66.752 238.986 65.216 239.61 63.92C240.234 62.624 241.13 61.624 242.298 60.92C243.482 60.216 244.89 59.864 246.522 59.864C248.138 59.864 249.53 60.216 250.698 60.92C251.882 61.624 252.794 62.624 253.434 63.92C254.074 65.216 254.394 66.744 254.394 68.504C254.394 70.28 254.074 71.824 253.434 73.136C252.794 74.432 251.882 75.44 250.698 76.16C249.53 76.864 248.138 77.216 246.522 77.216C244.89 77.216 243.49 76.864 242.322 76.16C241.154 75.44 240.25 74.432 239.61 73.136C238.986 71.824 238.674 70.288 238.674 68.528ZM241.026 68.528C241.026 70.64 241.49 72.288 242.418 73.472C243.346 74.656 244.714 75.248 246.522 75.248C248.266 75.248 249.618 74.664 250.578 73.496C251.554 72.312 252.042 70.656 252.042 68.528C252.042 66.4 251.562 64.752 250.602 63.584C249.642 62.416 248.282 61.832 246.522 61.832C244.714 61.832 243.346 62.416 242.418 63.584C241.49 64.752 241.026 66.4 241.026 68.528Z" fill="#ABABAB"/>
<path d="M263.523 77.216C262.163 77.216 260.939 77.04 259.851 76.688C258.763 76.336 257.819 75.84 257.019 75.2L257.787 73.424C258.347 73.84 258.915 74.192 259.491 74.48C260.067 74.752 260.683 74.96 261.339 75.104C262.011 75.232 262.739 75.296 263.523 75.296C264.915 75.296 265.939 75.048 266.595 74.552C267.267 74.04 267.603 73.368 267.603 72.536C267.603 71.816 267.371 71.264 266.907 70.88C266.443 70.496 265.635 70.192 264.483 69.968L261.915 69.44C260.363 69.12 259.203 68.6 258.435 67.88C257.683 67.144 257.307 66.152 257.307 64.904C257.307 63.896 257.571 63.016 258.099 62.264C258.643 61.496 259.387 60.904 260.331 60.488C261.291 60.072 262.411 59.864 263.691 59.864C264.875 59.864 265.971 60.04 266.979 60.392C267.987 60.744 268.835 61.264 269.523 61.952L268.755 63.656C268.035 63 267.259 62.528 266.427 62.24C265.611 61.936 264.683 61.784 263.643 61.784C262.379 61.784 261.379 62.056 260.643 62.6C259.907 63.144 259.539 63.88 259.539 64.808C259.539 65.544 259.771 66.128 260.235 66.56C260.699 66.976 261.467 67.296 262.539 67.52L265.107 68.024C266.739 68.344 267.931 68.848 268.683 69.536C269.451 70.224 269.835 71.176 269.835 72.392C269.835 73.352 269.579 74.2 269.067 74.936C268.555 75.656 267.827 76.216 266.883 76.616C265.939 77.016 264.819 77.216 263.523 77.216Z" fill="#ABABAB"/>
</svg>
